<svg xmlns="http://www.w3.org/2000/svg" viewBox="0 0 480 320" width="480" height="320">
  <rect width="480" height="320" fill="#eef1ee"/>
  <g transform="translate(60 70)">
    <rect x="0" y="130" width="360" height="20" rx="6" fill="#9aa499"/>
    <g stroke="#6b756b" stroke-width="9">
      <line x1="60" y1="130" x2="60" y2="60"/>
      <line x1="130" y1="130" x2="130" y2="40"/>
      <line x1="200" y1="130" x2="200" y2="70"/>
      <line x1="270" y1="130" x2="270" y2="50"/>
    </g>
    <rect x="20" y="150" width="110" height="22" rx="6" fill="#5b6470"/>
    <rect x="160" y="152" width="90" height="18" rx="5" fill="#3f4646"/>
    <rect x="275" y="148" width="70" height="24" rx="6" fill="#6d7a70"/>
    <rect x="0" y="14" width="340" height="26" rx="8" fill="#8a948c" opacity="0.5"/>
  </g>
  <g transform="translate(90 232)">
    <rect x="0" y="0" width="160" height="18" rx="6" fill="#b87333"/>
    <rect x="180" y="4" width="130" height="12" rx="4" fill="#c98a3d"/>
  </g>
  <text x="240" y="308" font-family="Arial, sans-serif" font-size="15" fill="#5c6b75" text-anchor="middle">Construction &amp; Demolition Scrap</text>
</svg>