<svg xmlns="http://www.w3.org/2000/svg" viewBox="0 0 480 320" width="480" height="320">
  <rect width="480" height="320" fill="#eef0f1"/>
  <g transform="translate(60 50)">
    <rect x="0" y="120" width="360" height="46" rx="10" fill="#6b7280"/>
    <rect x="30" y="70" width="80" height="50" rx="8" fill="#4b5563"/>
    <rect x="140" y="40" width="90" height="80" rx="8" fill="#374151"/>
    <rect x="260" y="80" width="60" height="40" rx="8" fill="#1f2937"/>
    <g stroke="#cbd5d1" stroke-width="6">
      <line x1="200" y1="166" x2="200" y2="196"/>
      <line x1="240" y1="166" x2="240" y2="196"/>
    </g>
    <path d="M60 96 q20 -40 80 -30 M180 70 q30 -44 110 -20" stroke="#9aa5a0" stroke-width="8" fill="none" stroke-linecap="round"/>
  </g>
  <g transform="translate(70 220)">
    <rect x="0" y="0" width="120" height="34" rx="9" fill="#22c55e"/>
    <rect x="136" y="6" width="86" height="22" rx="6" fill="#5b6470"/>
    <rect x="238" y="0" width="70" height="34" rx="9" fill="#b87333"/>
  </g>
  <text x="240" y="50" font-family="Arial, sans-serif" font-size="14" fill="#374151" text-anchor="middle" font-weight="bold">FACTORY</text>
  <text x="240" y="306" font-family="Arial, sans-serif" font-size="15" fill="#5c6b75" text-anchor="middle">Industrial &amp; Factory Scrap</text>
</svg>